<svg class="w-100 h-auto" fill="none" height="32" viewBox="0 0 200 32" width="200" xmlns="http://www.w3.org/2000/svg">
<g clip-path="url(#ot-logo-clip-path)">
<path d="M64.1399 15.9434C64.1399 20.8204 61.3318 26.1042 53.7955 26.1042C48.3674 26.1042 43.416 23.073 43.416 15.9434C43.416 10.0342 47.147 5.48963 54.5347 5.89641C62.4034 6.33818 64.1399 12.4355 64.1399 15.9434ZM50.1038 12.2343C49.404 13.3147 49.1415 14.6137 49.1415 15.9128C49.1415 18.9046 50.6199 21.6121 53.7955 21.6121C56.971 21.6121 58.375 19.1189 58.375 16.1621C58.375 14.0714 57.8589 12.4486 56.7873 11.4382C55.6063 10.3579 54.2766 10.3229 53.463 10.3929C51.8359 10.5022 50.878 11.0402 50.0994 12.2299H50.1038V12.2343Z" fill="#101C2F"></path>
<path d="M114.581 8.07472C115.136 7.48424 115.503 7.04247 116.501 6.56133C117.389 6.19391 118.644 5.89648 120.009 5.89648C121.155 5.89648 122.445 6.08019 123.447 6.63569C125.48 7.70731 125.997 9.44378 125.997 12.4356V25.6231H120.345V14.7625C120.345 13.0261 120.31 12.3962 120.087 11.8801C119.646 10.8478 118.648 10.4017 117.537 10.4017C114.546 10.4017 114.546 12.803 114.546 15.2043V25.6231H108.855V6.37762H114.581V8.0791V8.07472Z" fill="#101C2F"></path>
<path d="M106.152 20.641C105.631 21.7388 103.952 26.1041 96.5467 26.1041C90.8212 26.1041 86.7927 22.6005 86.7927 16.2845C86.7927 11.6306 89.0847 5.89629 96.6954 5.89629C97.8414 5.89629 101.166 5.75632 103.641 8.4157C106.152 11.1144 106.301 14.8804 106.375 17.0587H92.597C92.562 19.46 93.9267 21.8613 96.9928 21.8613C100.059 21.8613 101.166 19.8274 101.87 18.4627L106.156 20.641H106.152ZM100.501 13.5114C100.391 12.6978 100.243 11.6262 99.4291 10.7776C98.7293 10.0778 97.6577 9.70602 96.6604 9.70602C95.2957 9.70602 94.3335 10.3709 93.778 10.9614C93.0038 11.8099 92.8157 12.6978 92.632 13.5114H100.501Z" fill="#101C2F"></path>
<path d="M185.26 10.3709H189.03V6.37743H185.299V2.32275H179.648V6.37743H178.751L176.162 10.3752H179.648V19.53C179.648 21.3758 179.683 22.7448 180.461 23.8908C181.682 25.6623 183.825 25.776 185.78 25.776C186.812 25.776 187.552 25.6667 188.772 25.4786V21.0434L186.738 21.1177C185.225 21.1177 185.225 20.1205 185.26 18.9395V10.3709Z" fill="#101C2F"></path>
<path d="M128.827 2.32275H134.478V6.37743H140.352L137.763 10.3752H134.438V18.9395C134.403 20.1205 134.403 21.1177 135.917 21.1177L137.951 21.0434V25.4786C136.73 25.6623 135.991 25.776 134.959 25.776C132.999 25.776 130.856 25.6667 129.64 23.8908C128.866 22.7448 128.827 21.3802 128.827 19.53V2.32275Z" fill="#101C2F"></path>
<path d="M194.266 10.3709H193.566V6.96353H192.276V6.37305H195.525V6.96353H194.261V10.3709H194.266ZM199.742 10.3709H199.055L199.077 7.90394L199.112 7.08601L198.92 7.7596L198.102 10.3709H197.476L196.671 7.7596L196.466 7.09913L196.514 7.90394L196.54 10.3709H195.867V6.37742H196.816L197.813 9.53106L198.788 6.37742H199.738V10.3752H199.742V10.3709Z" fill="#101C2F"></path>
<path d="M158.163 20.6585L157.082 22.3293C156.068 23.8165 154.161 26.1041 148.702 26.1041C143.243 26.1041 139.127 22.6005 139.127 16.2845C139.127 11.6306 141.419 5.89629 149.03 5.89629C150.176 5.89629 153.5 5.75632 155.976 8.4157C158.487 11.1144 158.635 14.8804 158.71 17.0587H144.932C144.897 19.46 146.082 21.8613 149.148 21.8613C152.214 21.8613 153.142 19.8274 153.846 18.4627L158.167 20.6585H158.163ZM152.831 13.5114C152.722 12.6978 152.573 11.6262 151.759 10.7776C151.06 10.0778 149.988 9.70602 148.991 9.70602C147.626 9.70602 146.664 10.3709 146.108 10.9614C145.334 11.8099 145.146 12.6978 144.962 13.5114H152.831Z" fill="#101C2F"></path>
<path d="M177.531 25.6273L170.463 15.4928L176.354 6.37744H169.885L167.103 10.6814L164.103 6.37744H157.634L163.993 15.4928L157.446 25.6273H163.915L167.353 20.3086L171.062 25.6273H177.531Z" fill="#101C2F"></path>
<path d="M71.9737 8.07472C72.5161 7.24804 74.2613 5.89648 77.0344 5.89648C81.7627 5.89648 85.0912 9.47877 85.0912 15.9085C85.0912 19.8626 83.6522 26.1042 76.7982 26.1042C74.3356 26.1042 72.4242 24.7352 71.9387 23.926V32.0004H66.2482V6.37762H71.9737V8.0791V8.07472ZM75.814 10.3361C74.7818 10.3361 73.7102 10.7472 72.8966 11.7795C72.083 12.7767 71.7156 14.3251 71.7156 16.0091C71.7156 18.2792 72.3805 19.6526 73.0803 20.4443C73.7364 21.1835 74.7074 21.6078 75.6303 21.6078C78.3991 21.6078 79.6194 18.6904 79.6194 15.8691C79.6194 13.4985 78.9196 10.9878 76.5882 10.4367C76.3302 10.3667 76.0721 10.3317 75.814 10.3317V10.3361Z" fill="#101C2F"></path>
<path d="M26.7376 0H5.27017C2.36148 0 0.00390625 2.35757 0.00390625 5.26627V26.7381C0.00390625 29.6468 2.36148 32.0044 5.27017 32.0044H26.742C29.6507 32.0044 32.0083 29.6468 32.0083 26.7381V5.26627C32.0083 2.35757 29.6507 0 26.742 0H26.7376Z" fill="url(#ot-logo-gradient-background)"></path>
<path d="M22.4778 13.6466C22.4778 13.4629 22.6309 13.3098 22.8146 13.3098H24.5861C24.6998 13.3098 24.8048 13.253 24.8704 13.1567L26.2176 11.0747C26.3663 10.8517 26.2045 10.5542 25.9333 10.5542H22.8409C22.6528 10.5542 22.5041 10.4011 22.5041 10.2174V8.09605C22.5041 7.90797 22.351 7.75488 22.1673 7.75488H18.9393C18.7512 7.75488 18.6025 7.90797 18.6025 8.09168V13.9965C17.4653 11.8139 15.182 10.318 12.5533 10.318C8.78729 10.318 5.73425 13.3711 5.73425 17.1371C5.73425 20.9031 8.78729 23.9561 12.5533 23.9561C15.1908 23.9561 17.474 22.4602 18.6112 20.2688C18.6287 21.2311 18.725 21.9878 19.1667 22.6395C20.0065 23.8642 21.4849 23.9386 22.8365 23.9386C23.4663 23.9386 23.9344 23.8817 24.6123 23.7768C24.7785 23.7505 24.901 23.6062 24.901 23.44V21.0211C24.901 20.8287 24.7435 20.6756 24.5511 20.6844L23.5013 20.7237C22.456 20.7237 22.4822 20.037 22.4822 19.2191V13.6466H22.4778ZM12.5533 20.1988C10.8649 20.1988 9.4915 18.8298 9.4915 17.1371C9.4915 15.4443 10.8606 14.0753 12.5533 14.0753C14.246 14.0753 15.6151 15.4443 15.6151 17.1371C15.6151 18.8298 14.246 20.1988 12.5533 20.1988Z" fill="white"></path>
</g>
<defs>
<linearGradient gradientUnits="userSpaceOnUse" id="ot-logo-gradient-background" x1="24.3932" x2="5.13458" y1="26.6681" y2="2.17824">
<stop offset="0" stop-color="#00008B"></stop>
<stop offset="1" stop-color="#1A6AFF"></stop>
</linearGradient>
<clipPath id="ot-logo-clip-path">
<rect fill="white" height="32" width="199.742"></rect>
</clipPath>
</defs></svg>