<svg height='100px' width='100px'  fill="#2b1e48" xmlns="http://www.w3.org/2000/svg" data-name="Layer 1" viewBox="0 0 100 100" x="0px" y="0px"><title>10</title><path d="M72.39,15a22.64,22.64,0,0,0-9.29,7.1,41.57,41.57,0,0,1-1.47-5c1.83-1.08,5.67-4.64,13.82-6.74-.14,7-.81,12.7-4.38,18.87A19.78,19.78,0,0,1,66,24.86C66.82,20.9,69.47,17.82,72.39,15Z"></path><path d="M6.71,60.91c5.05,1.69,9.43,2.7,13.81,5.55a47.9,47.9,0,0,1,8-11.16c-2.73-2.46-5.78-4-8-6.86C12.5,53.47,9.1,57.36,6.71,60.91Z"></path><path d="M15,44.72c0-.42-.06-.86-.06-1.3A29.39,29.39,0,0,1,15.47,37c2.24-2.87,5.72-4.05,8.63-4.93a56.31,56.31,0,0,0,1.48,8A19.77,19.77,0,0,0,15,44.72Z"></path><path d="M35,88.54c-9.43-3-12.47-4-15.6-8.72,4.12-4.94,9.41-9.52,15.26-11.16A26.77,26.77,0,0,0,35,88.54Z"></path><path d="M91.43,61.23C86.6,58,83.25,52.83,79,49.05c-1.87-4.32-2.62-9.17-3.26-13.87-4.39-2.54-9.86-6.59-13.17-10.68-.88,3-1.82,5.71-2.87,8.53a52.18,52.18,0,0,0,.36-6c0-7.43-1.87-14.51-7.07-20.2C44.34,11.31,35.71,21.2,35.37,31.35c-2.71-1.34-5.5-2.59-8.18-3.91,0,.22,0,.44,0,.66A30.82,30.82,0,0,0,32.5,46.26a66.14,66.14,0,0,1-8.38-3A29.88,29.88,0,0,0,36,56.5,26.67,26.67,0,0,0,25.2,68.72C30.14,66.56,37.39,64,42.48,64c.34,0,.68,0,1,0a28.05,28.05,0,0,0-6.39,11.3,31.63,31.63,0,0,1,16.13-4.72A20.41,20.41,0,0,1,64,73.47a67,67,0,0,1,12.3-2.65,28,28,0,0,0,5.32.53,24.89,24.89,0,0,0,10.43-2.29A69.26,69.26,0,0,1,91.43,61.23ZM49.27,21.65a5.35,5.35,0,0,0-.63,2.53,11.59,11.59,0,0,0,1.6,5.08,9.65,9.65,0,0,1-4-2.24c-1.41,2.06-1.78,6.05-1.81,9.56a12,12,0,0,1-1.35-5.68c0-6.45,4.34-13.41,8.52-17.46a32.13,32.13,0,0,1,5,11C54.28,23,51.79,22.53,49.27,21.65Zm13,28.48-4.38-6.74L66,47.77l3.71,4.38Z"></path><path d="M55.57,74.05s-7.76,10.11-6.41,15.5c0,0-7.41-8.08-7.07-12.13C42.09,77.42,44.78,74.05,55.57,74.05Z"></path></svg>