<svg xmlns="http://www.w3.org/2000/svg" viewBox="0 0 92.82 17.14"><defs><style>.cls-1{fill:#fff;}</style></defs><title>childsafe-logo-light-h</title><g id="Layer_2" data-name="Layer 2"><g id="Layer_1-2" data-name="Layer 1"><path class="cls-1" d="M80.87,10.71a.84.84,0,1,0,.88.84A.81.81,0,0,0,80.87,10.71Z"/><rect class="cls-1" x="91.02" y="4.88" width="1.81" height="7.33" rx="0.32" ry="0.32"/><path class="cls-1" d="M64.48,5.09a.31.31,0,0,0-.3-.21H62.53a.33.33,0,0,0-.31.21l-2.38,6.69a.32.32,0,0,0,.3.43h1.25a.31.31,0,0,0,.3-.22l.41-1.22h2.49L65,12a.32.32,0,0,0,.3.22h1.26a.32.32,0,0,0,.3-.43ZM62.54,9.21l.81-2.45.8,2.45Z"/><path class="cls-1" d="M87.49,5.09a.3.3,0,0,0-.3-.21H85.54a.3.3,0,0,0-.3.21l-2.39,6.69a.32.32,0,0,0,.31.43H84.4a.31.31,0,0,0,.3-.22l.41-1.22h2.5L88,12a.33.33,0,0,0,.31.22h1.25a.32.32,0,0,0,.31-.43ZM85.56,9.21l.8-2.45.8,2.45Z"/><path class="cls-1" d="M28.11,10.14a.32.32,0,0,0-.42,0,2.71,2.71,0,0,1-1.71.63,2.11,2.11,0,0,1-2.17-2.21A2.11,2.11,0,0,1,26,6.33,2.66,2.66,0,0,1,27.69,7a.32.32,0,0,0,.42,0l.79-.75a.32.32,0,0,0,0-.47A4.08,4.08,0,0,0,26,4.63a3.86,3.86,0,0,0-4,3.91,3.86,3.86,0,0,0,4,3.91,4.21,4.21,0,0,0,2.88-1.1.33.33,0,0,0,0-.47Z"/><path class="cls-1" d="M36.59,11.89V5.19a.31.31,0,0,0-.32-.31H35.12a.31.31,0,0,0-.32.31V7.76H31.91V5.19a.31.31,0,0,0-.32-.31H30.42a.31.31,0,0,0-.32.31v6.7a.32.32,0,0,0,.32.32h1.17a.32.32,0,0,0,.32-.32V9.31H34.8v2.58a.32.32,0,0,0,.32.32h1.15A.32.32,0,0,0,36.59,11.89Z"/><rect class="cls-1" x="37.7" y="4.88" width="1.81" height="7.33" rx="0.32" ry="0.32"/><path class="cls-1" d="M45.63,11.89V11a.32.32,0,0,0-.32-.32H42.42V5.19a.32.32,0,0,0-.32-.31H40.93a.31.31,0,0,0-.32.31v6.7a.32.32,0,0,0,.32.32h4.38A.32.32,0,0,0,45.63,11.89Z"/><path class="cls-1" d="M49.3,4.88H47.05a.31.31,0,0,0-.32.31v6.7a.32.32,0,0,0,.32.32H49.3a3.67,3.67,0,1,0,0-7.33Zm0,5.69h-.72V6.5h.72a2,2,0,0,1,2.05,2A2,2,0,0,1,49.26,10.57Z"/><path class="cls-1" d="M57.2,7.81c-.63-.18-1.3-.28-1.3-.83a.71.71,0,0,1,.77-.71.69.69,0,0,1,.73.52.32.32,0,0,0,.3.24h1.07a.33.33,0,0,0,.32-.38,2.3,2.3,0,0,0-2.47-2A2.45,2.45,0,0,0,54.11,7c0,1.26.69,1.84,1.93,2.28.61.2,1.33.36,1.33.91a.65.65,0,0,1-.74.64.76.76,0,0,1-.72-.53.32.32,0,0,0-.31-.24H54.46a.32.32,0,0,0-.32.36,2.32,2.32,0,0,0,2.49,2,2.44,2.44,0,0,0,2.5-2.37A2.25,2.25,0,0,0,57.2,7.81Z"/><path class="cls-1" d="M72.53,9.27V8.35A.32.32,0,0,0,72.21,8h-2.4V6.46h2.63a.31.31,0,0,0,.32-.31v-1a.31.31,0,0,0-.32-.31H68.32a.32.32,0,0,0-.32.31v6.7a.32.32,0,0,0,.32.32h1.17a.32.32,0,0,0,.32-.32V9.59h2.4A.32.32,0,0,0,72.53,9.27Z"/><path class="cls-1" d="M78.57,10.67H75.68V9.35H78.2A.32.32,0,0,0,78.52,9V8.1a.33.33,0,0,0-.32-.32H75.68V6.46h2.71a.35.35,0,0,0,.36-.35V5.19a.31.31,0,0,0-.32-.31H74.19a.31.31,0,0,0-.32.31v6.7a.32.32,0,0,0,.32.32h4.38a.32.32,0,0,0,.32-.32V11A.32.32,0,0,0,78.57,10.67Z"/><path class="cls-1" d="M27,14.65H25.85v2.44h.52v-.86H27a.77.77,0,0,0,.82-.79A.76.76,0,0,0,27,14.65Zm-.07,1.12h-.56v-.66h.56a.32.32,0,0,1,.35.33A.33.33,0,0,1,26.93,15.77Z"/><path class="cls-1" d="M30.94,15.44a.76.76,0,0,0-.82-.79H29v2.44h.52v-.86h.38l.48.86H31l-.55-.93A.69.69,0,0,0,30.94,15.44Zm-.89.33H29.5v-.66h.55a.32.32,0,0,1,.36.33A.33.33,0,0,1,30.05,15.77Z"/><path class="cls-1" d="M33.34,14.61a1.27,1.27,0,1,0,1.27,1.26A1.23,1.23,0,0,0,33.34,14.61Zm0,2.07a.81.81,0,1,1,.74-.81A.74.74,0,0,1,33.34,16.68Z"/><polygon class="cls-1" points="35.59 15.11 36.3 15.11 36.3 17.09 36.82 17.09 36.82 15.11 37.53 15.11 37.53 14.65 35.59 14.65 35.59 15.11"/><polygon class="cls-1" points="38.71 17.09 40.44 17.09 40.44 16.64 39.23 16.64 39.23 16.08 40.41 16.08 40.41 15.63 39.23 15.63 39.23 15.11 40.44 15.11 40.44 14.65 38.71 14.65 38.71 17.09"/><path class="cls-1" d="M42.87,15.07a.68.68,0,0,1,.58.36l.44-.22a1.1,1.1,0,0,0-1-.6,1.27,1.27,0,1,0,0,2.53,1.12,1.12,0,0,0,1-.6l-.44-.22a.68.68,0,0,1-.58.36.81.81,0,0,1,0-1.61Z"/><polygon class="cls-1" points="44.9 15.11 45.61 15.11 45.61 17.09 46.13 17.09 46.13 15.11 46.84 15.11 46.84 14.65 44.9 14.65 44.9 15.11"/><rect class="cls-1" x="48.02" y="14.65" width="0.52" height="2.44"/><polygon class="cls-1" points="51.53 16.18 50.4 14.65 49.87 14.65 49.87 17.09 50.39 17.09 50.39 15.5 51.55 17.09 52.05 17.09 52.05 14.65 51.53 14.65 51.53 16.18"/><path class="cls-1" d="M54.44,16.2h.64v.29a.83.83,0,0,1-.52.19.81.81,0,0,1,0-1.61.7.7,0,0,1,.58.32l.43-.23a1.14,1.14,0,0,0-1-.55,1.27,1.27,0,1,0,0,2.53,1.36,1.36,0,0,0,1-.46v-.94H54.44Z"/><polygon class="cls-1" points="60.66 14.65 60.02 14.65 59.16 15.74 59.16 14.65 58.64 14.65 58.64 17.09 59.16 17.09 59.16 16.34 59.35 16.11 60.09 17.09 60.73 17.09 59.69 15.8 60.66 14.65"/><rect class="cls-1" x="61.81" y="14.65" width="0.52" height="2.44"/><path class="cls-1" d="M64.62,14.65h-1v2.44h1a1.22,1.22,0,1,0,0-2.44Zm0,2h-.44V15.11h.44a.72.72,0,0,1,.77.76A.74.74,0,0,1,64.62,16.64Z"/><path class="cls-1" d="M67.57,15.31c0-.14.13-.24.35-.24a1,1,0,0,1,.71.27l.29-.39a1.36,1.36,0,0,0-1-.34c-.58,0-.93.34-.93.75,0,.92,1.41.62,1.41,1.05,0,.14-.14.27-.43.27a1.06,1.06,0,0,1-.77-.33l-.29.4a1.42,1.42,0,0,0,1,.39c.66,0,1-.34,1-.79C69,15.44,67.57,15.7,67.57,15.31Z"/><path class="cls-1" d="M73.11,14.61a1.27,1.27,0,1,0,1.27,1.26A1.23,1.23,0,0,0,73.11,14.61Zm0,2.07a.81.81,0,1,1,.74-.81A.74.74,0,0,1,73.11,16.68Z"/><polygon class="cls-1" points="77.26 16.18 76.13 14.65 75.59 14.65 75.59 17.09 76.11 17.09 76.11 15.5 77.28 17.09 77.78 17.09 77.78 14.65 77.26 14.65 77.26 16.18"/><polygon class="cls-1" points="79.63 14.65 79.11 14.65 79.11 17.09 80.66 17.09 80.66 16.64 79.63 16.64 79.63 14.65"/><rect class="cls-1" x="81.87" y="14.65" width="0.52" height="2.44"/><polygon class="cls-1" points="85.38 16.18 84.25 14.65 83.71 14.65 83.71 17.09 84.23 17.09 84.23 15.5 85.39 17.09 85.9 17.09 85.9 14.65 85.38 14.65 85.38 16.18"/><polygon class="cls-1" points="87.22 17.09 88.95 17.09 88.95 16.64 87.74 16.64 87.74 16.08 88.93 16.08 88.93 15.63 87.74 15.63 87.74 15.11 88.95 15.11 88.95 14.65 87.22 14.65 87.22 17.09"/><circle class="cls-1" cx="8.55" cy="8.55" r="3.42"/><path class="cls-1" d="M8.55,0A8.54,8.54,0,0,0,3.83,15.67a.64.64,0,0,0,.92-.22l.62-1.13a.63.63,0,0,0-.19-.83,6,6,0,1,1,6.74,0,.64.64,0,0,0-.2.83l.62,1.13a.65.65,0,0,0,.93.22A8.55,8.55,0,0,0,8.55,0Z"/><path class="cls-1" d="M9.11,14.23a.65.65,0,0,0-1.13,0L6.93,16.14a.64.64,0,0,0,.56.95H9.6a.64.64,0,0,0,.56-.95Z"/></g></g></svg>