<svg xmlns="http://www.w3.org/2000/svg" viewBox="0 0 72.51 40.04"><defs><style>.cls-1{fill:#00bc70;}.cls-2{fill:#fff;}</style></defs><title>childsafe-logo-gw-v</title><g id="Layer_2" data-name="Layer 2"><g id="Layer_1-2" data-name="Layer 1"><circle class="cls-1" cx="36.25" cy="11.25" r="4.5"/><path class="cls-1" d="M36.26,0a11.24,11.24,0,0,0-6.21,20.62.84.84,0,0,0,1.21-.29l.81-1.48a.84.84,0,0,0-.25-1.1,7.88,7.88,0,1,1,8.87,0,.83.83,0,0,0-.25,1.1l.81,1.48a.85.85,0,0,0,1.21.29A11.24,11.24,0,0,0,36.26,0Z"/><path class="cls-1" d="M37.64,22.49H34.87a.84.84,0,0,1-.74-1.25l1.39-2.51a.83.83,0,0,1,1.47,0l1.39,2.51A.84.84,0,0,1,37.64,22.49Z"/><path class="cls-1" d="M60.27,33.45a.87.87,0,1,1-.9.86A.83.83,0,0,1,60.27,33.45Z"/><rect class="cls-1" x="70.66" y="27.48" width="1.85" height="7.51" rx="0.33" ry="0.33"/><path class="cls-2" d="M41.19,27.7l-2.44,6.86a.32.32,0,0,0,.31.43h1.27a.32.32,0,0,0,.31-.22l.42-1.25h2.55L44,34.77a.32.32,0,0,0,.31.22h1.29a.32.32,0,0,0,.31-.43L43.5,27.7a.33.33,0,0,0-.31-.22H41.5A.33.33,0,0,0,41.19,27.7Zm2,4.22H41.52l.82-2.5Z"/><path class="cls-1" d="M64.74,27.7,62.3,34.56a.33.33,0,0,0,.31.43h1.28a.33.33,0,0,0,.31-.22l.42-1.25h2.55l.41,1.25a.34.34,0,0,0,.32.22h1.28a.32.32,0,0,0,.31-.43L67.05,27.7a.32.32,0,0,0-.31-.22H65.05A.33.33,0,0,0,64.74,27.7Zm2,4.22H65.07l.82-2.5Z"/><path class="cls-2" d="M4.09,27.23a4.21,4.21,0,0,1,3,1.13.33.33,0,0,1,0,.48l-.81.77a.32.32,0,0,1-.42,0A2.76,2.76,0,0,0,4.09,29a2.27,2.27,0,0,0,0,4.53,2.76,2.76,0,0,0,1.75-.65.32.32,0,0,1,.43,0l.78.75a.34.34,0,0,1,0,.48,4.28,4.28,0,0,1-2.95,1.13,4,4,0,1,1,0-8Z"/><path class="cls-2" d="M8.64,27.48H9.83a.33.33,0,0,1,.33.33v2.63h3V27.81a.33.33,0,0,1,.33-.33h1.18a.33.33,0,0,1,.33.33v6.85a.33.33,0,0,1-.33.33H13.45a.33.33,0,0,1-.33-.33V32h-3v2.63a.33.33,0,0,1-.33.33H8.64a.33.33,0,0,1-.33-.33V27.81A.33.33,0,0,1,8.64,27.48Z"/><rect class="cls-2" x="16.09" y="27.48" width="1.85" height="7.51" rx="0.33" ry="0.33"/><path class="cls-2" d="M19.39,27.48h1.2a.33.33,0,0,1,.33.33v5.6h2.95a.33.33,0,0,1,.33.33v.92a.33.33,0,0,1-.33.33H19.39a.32.32,0,0,1-.32-.33V27.81A.32.32,0,0,1,19.39,27.48Z"/><path class="cls-2" d="M28,27.48h-2.3a.33.33,0,0,0-.33.33v6.85a.33.33,0,0,0,.33.33H28a3.76,3.76,0,1,0,0-7.51Zm0,5.83h-.74V29.15h.74a2.08,2.08,0,1,1,0,4.16Z"/><path class="cls-2" d="M34.41,32.79a.34.34,0,0,1,.32.25.79.79,0,0,0,.74.54.67.67,0,0,0,.75-.65c0-.57-.74-.73-1.36-.94-1.27-.45-2-1-2-2.33a2.51,2.51,0,0,1,2.57-2.43A2.35,2.35,0,0,1,38,29.3a.34.34,0,0,1-.33.39h-1.1a.31.31,0,0,1-.29-.25.72.72,0,0,0-.75-.53.73.73,0,0,0-.8.73c0,.56.7.66,1.34.85a2.31,2.31,0,0,1,2,2.32,2.49,2.49,0,0,1-2.55,2.43,2.39,2.39,0,0,1-2.56-2.08.33.33,0,0,1,.33-.37Z"/><path class="cls-2" d="M47.43,27.48h4.22a.33.33,0,0,1,.33.33v1a.33.33,0,0,1-.33.33H49v1.6h2.46a.33.33,0,0,1,.33.33V32a.32.32,0,0,1-.33.32H49v2.35a.32.32,0,0,1-.32.33h-1.2a.33.33,0,0,1-.33-.33V27.81A.33.33,0,0,1,47.43,27.48Z"/><path class="cls-2" d="M53.44,27.48h4.34a.33.33,0,0,1,.33.33v.94a.37.37,0,0,1-.37.36H55v1.35h2.58a.33.33,0,0,1,.33.33v.95a.32.32,0,0,1-.33.32H55v1.35h3a.32.32,0,0,1,.32.33v.92a.32.32,0,0,1-.32.33H53.44a.33.33,0,0,1-.33-.33V27.81A.33.33,0,0,1,53.44,27.48Z"/><path class="cls-2" d="M4,40v-2.5H5.13a.81.81,0,1,1,0,1.61H4.49V40ZM5.43,38.3A.34.34,0,0,0,5.06,38H4.49v.67h.57A.34.34,0,0,0,5.43,38.3Z"/><path class="cls-2" d="M8.58,40l-.49-.89H7.7V40H7.16v-2.5H8.33a.78.78,0,0,1,.84.81.72.72,0,0,1-.54.74l.56,1Zm.05-1.69A.34.34,0,0,0,8.25,38H7.7v.67h.55A.34.34,0,0,0,8.63,38.3Z"/><path class="cls-2" d="M10.32,38.74A1.31,1.31,0,1,1,11.62,40,1.25,1.25,0,0,1,10.32,38.74Zm2.06,0a.76.76,0,1,0-.76.82A.76.76,0,0,0,12.38,38.74Z"/><path class="cls-2" d="M14.65,40V38h-.73v-.47h2V38h-.73v2Z"/><path class="cls-2" d="M17.12,40v-2.5h1.77V38H17.65v.53h1.21V39H17.65v.56h1.24V40Z"/><path class="cls-2" d="M20.05,38.74a1.27,1.27,0,0,1,1.33-1.29,1.16,1.16,0,0,1,1.05.61l-.46.22a.69.69,0,0,0-.59-.36.82.82,0,0,0,0,1.64A.69.69,0,0,0,22,39.2l.46.22a1.16,1.16,0,0,1-1.05.61A1.27,1.27,0,0,1,20.05,38.74Z"/><path class="cls-2" d="M24.18,40V38h-.73v-.47h2V38h-.73v2Z"/><path class="cls-2" d="M26.65,40v-2.5h.53V40Z"/><path class="cls-2" d="M30.27,40l-1.2-1.63V40h-.53v-2.5h.55l1.16,1.57V37.49h.53V40Z"/><path class="cls-2" d="M32,38.74a1.27,1.27,0,0,1,1.33-1.29,1.16,1.16,0,0,1,1,.56l-.44.24a.7.7,0,0,0-.59-.33.82.82,0,0,0,0,1.64.86.86,0,0,0,.53-.19v-.3h-.66v-.46h1.19v1a1.39,1.39,0,0,1-1.06.47A1.27,1.27,0,0,1,32,38.74Z"/><path class="cls-2" d="M39,40l-.75-1-.2.23V40h-.53v-2.5h.53v1.12l.89-1.12h.65l-1,1.17L39.66,40Z"/><path class="cls-2" d="M40.77,40v-2.5h.53V40Z"/><path class="cls-2" d="M42.66,40v-2.5h1a1.25,1.25,0,1,1,0,2.5Zm1.77-1.25a.73.73,0,0,0-.79-.78h-.45v1.56h.45A.75.75,0,0,0,44.43,38.74Z"/><path class="cls-2" d="M46,39.64l.29-.41a1.08,1.08,0,0,0,.8.34c.29,0,.43-.14.43-.28,0-.44-1.44-.14-1.44-1.08,0-.41.36-.76,1-.76a1.36,1.36,0,0,1,1,.35l-.29.39a1.09,1.09,0,0,0-.73-.27c-.23,0-.36.1-.36.25,0,.4,1.44.13,1.44,1.06,0,.46-.33.8-1,.8A1.45,1.45,0,0,1,46,39.64Z"/><path class="cls-2" d="M51,38.74A1.31,1.31,0,1,1,52.33,40,1.26,1.26,0,0,1,51,38.74Zm2.07,0a.76.76,0,1,0-.76.82A.76.76,0,0,0,53.09,38.74Z"/><path class="cls-2" d="M56.6,40l-1.19-1.63V40h-.54v-2.5h.55l1.16,1.57V37.49h.53V40Z"/><path class="cls-2" d="M58.47,40v-2.5H59v2h1.06V40Z"/><path class="cls-2" d="M61.29,40v-2.5h.54V40Z"/><path class="cls-2" d="M64.91,40l-1.2-1.63V40h-.53v-2.5h.55l1.16,1.57V37.49h.53V40Z"/><path class="cls-2" d="M66.78,40v-2.5h1.77V38H67.31v.53h1.21V39H67.31v.56h1.24V40Z"/></g></g></svg>