<svg xmlns="http://www.w3.org/2000/svg" viewBox="0 0 75.98 36.93"><defs><style>.cls-1{fill:#fff;}</style></defs><title>childsafe-logo-light-slim-v</title><g id="Layer_2" data-name="Layer 2"><g id="Layer_1-2" data-name="Layer 1"><circle class="cls-1" cx="37.99" cy="11.79" r="4.71"/><path class="cls-1" d="M38,0a11.78,11.78,0,0,0-6.5,21.61.88.88,0,0,0,1.27-.31l.85-1.55a.87.87,0,0,0-.27-1.15,8.25,8.25,0,1,1,9.3,0,.87.87,0,0,0-.27,1.15l.85,1.55a.89.89,0,0,0,1.28.31A11.78,11.78,0,0,0,38,0Z"/><path class="cls-1" d="M39.44,23.57h-2.9a.89.89,0,0,1-.78-1.31l1.46-2.64a.88.88,0,0,1,1.54,0l1.46,2.64A.89.89,0,0,1,39.44,23.57Z"/><path class="cls-1" d="M63.16,35.05a.91.91,0,1,1-.95.91A.87.87,0,0,1,63.16,35.05Z"/><rect class="cls-1" x="74.04" y="28.8" width="1.94" height="7.86" rx="0.34" ry="0.34"/><path class="cls-1" d="M43.16,29l-2.55,7.18a.33.33,0,0,0,.32.45h1.33a.35.35,0,0,0,.33-.23L43,35.12H45.7l.44,1.31a.33.33,0,0,0,.32.23h1.35a.34.34,0,0,0,.33-.45L45.58,29a.34.34,0,0,0-.32-.23H43.49A.35.35,0,0,0,43.16,29Zm2.06,4.42H43.5l.86-2.62Z"/><path class="cls-1" d="M67.84,29l-2.55,7.18a.33.33,0,0,0,.32.45H67a.33.33,0,0,0,.32-.23l.44-1.31h2.67l.44,1.31a.35.35,0,0,0,.33.23H72.5a.34.34,0,0,0,.32-.45L70.26,29a.32.32,0,0,0-.32-.23H68.17A.35.35,0,0,0,67.84,29Zm2.07,4.42H68.19l.86-2.62Z"/><path class="cls-1" d="M4.29,28.54a4.38,4.38,0,0,1,3.12,1.18.34.34,0,0,1,0,.5l-.85.8a.32.32,0,0,1-.44,0,2.92,2.92,0,0,0-1.84-.68,2.38,2.38,0,0,0,0,4.75,2.89,2.89,0,0,0,1.83-.68.34.34,0,0,1,.45,0l.81.79a.33.33,0,0,1,0,.5,4.43,4.43,0,0,1-3.08,1.19,4.2,4.2,0,1,1,0-8.39Z"/><path class="cls-1" d="M9.05,28.8H10.3a.35.35,0,0,1,.35.34v2.75h3.1V29.14a.34.34,0,0,1,.34-.34h1.24a.34.34,0,0,1,.34.34v7.18a.34.34,0,0,1-.34.34H14.09a.34.34,0,0,1-.34-.34V33.56h-3.1v2.76a.35.35,0,0,1-.35.34H9.05a.34.34,0,0,1-.34-.34V29.14A.34.34,0,0,1,9.05,28.8Z"/><rect class="cls-1" x="16.86" y="28.8" width="1.94" height="7.86" rx="0.34" ry="0.34"/><path class="cls-1" d="M20.32,28.8h1.25a.35.35,0,0,1,.35.34V35H25a.35.35,0,0,1,.34.35v1a.34.34,0,0,1-.34.34h-4.7a.34.34,0,0,1-.34-.34V29.14A.34.34,0,0,1,20.32,28.8Z"/><path class="cls-1" d="M29.3,28.8H26.89a.35.35,0,0,0-.35.34v7.18a.35.35,0,0,0,.35.34H29.3a3.94,3.94,0,1,0,0-7.86Zm0,6.11h-.78V30.54h.78a2.19,2.19,0,1,1,0,4.37Z"/><path class="cls-1" d="M36.06,34.36a.35.35,0,0,1,.33.26.82.82,0,0,0,.78.56A.7.7,0,0,0,38,34.5c0-.59-.78-.76-1.43-1-1.33-.47-2.07-1.09-2.07-2.44a2.62,2.62,0,0,1,2.69-2.54,2.45,2.45,0,0,1,2.64,2.17.34.34,0,0,1-.34.4H38.3a.33.33,0,0,1-.31-.26.83.83,0,0,0-1.61.2c0,.59.72.7,1.39.9a2.42,2.42,0,0,1,2.07,2.43,2.61,2.61,0,0,1-2.67,2.55,2.5,2.5,0,0,1-2.68-2.18.34.34,0,0,1,.34-.39Z"/><path class="cls-1" d="M49.7,28.8h4.42a.34.34,0,0,1,.34.34v1a.34.34,0,0,1-.34.34H51.3v1.68h2.57a.34.34,0,0,1,.34.34v1a.34.34,0,0,1-.34.34H51.3v2.46a.35.35,0,0,1-.35.34H49.7a.34.34,0,0,1-.34-.34V29.14A.34.34,0,0,1,49.7,28.8Z"/><path class="cls-1" d="M56,28.8h4.55a.35.35,0,0,1,.35.34v1a.38.38,0,0,1-.38.38H57.59v1.42h2.7a.35.35,0,0,1,.35.34v1a.35.35,0,0,1-.35.34h-2.7V35h3.1a.35.35,0,0,1,.34.35v1a.34.34,0,0,1-.34.34H56a.34.34,0,0,1-.34-.34V29.14A.34.34,0,0,1,56,28.8Z"/></g></g></svg>