<svg xmlns="http://www.w3.org/2000/svg" viewBox="0 0 92.82 17.09"><defs><style>.cls-1{fill:#00bc70;}.cls-2{fill:#fff;}</style></defs><title>childsafe-logo-gw-slim-h</title><g id="Layer_2" data-name="Layer 2"><g id="Layer_1-2" data-name="Layer 1"><path class="cls-1" d="M80.87,10.71a.84.84,0,1,0,.88.84A.81.81,0,0,0,80.87,10.71Z"/><rect class="cls-1" x="91.02" y="4.88" width="1.81" height="7.33" rx="0.32" ry="0.32"/><path class="cls-2" d="M64.48,5.09a.31.31,0,0,0-.3-.21H62.53a.33.33,0,0,0-.31.21l-2.38,6.69a.32.32,0,0,0,.3.43h1.25a.31.31,0,0,0,.3-.22l.41-1.22h2.49L65,12a.32.32,0,0,0,.3.22h1.26a.32.32,0,0,0,.3-.43ZM62.54,9.21l.81-2.45.8,2.45Z"/><path class="cls-1" d="M87.49,5.09a.3.3,0,0,0-.3-.21H85.54a.3.3,0,0,0-.3.21l-2.39,6.69a.32.32,0,0,0,.31.43H84.4a.31.31,0,0,0,.3-.22l.41-1.22h2.5L88,12a.33.33,0,0,0,.31.22h1.25a.32.32,0,0,0,.31-.43ZM85.56,9.21l.8-2.45.8,2.45Z"/><path class="cls-2" d="M28.11,10.14a.32.32,0,0,0-.42,0,2.71,2.71,0,0,1-1.71.63,2.11,2.11,0,0,1-2.17-2.21A2.11,2.11,0,0,1,26,6.33,2.66,2.66,0,0,1,27.69,7a.32.32,0,0,0,.42,0l.79-.75a.32.32,0,0,0,0-.47A4.08,4.08,0,0,0,26,4.63a3.86,3.86,0,0,0-4,3.91,3.86,3.86,0,0,0,4,3.91,4.21,4.21,0,0,0,2.88-1.1.33.33,0,0,0,0-.47Z"/><path class="cls-2" d="M36.59,11.89V5.19a.31.31,0,0,0-.32-.31H35.12a.31.31,0,0,0-.32.31V7.76H31.91V5.19a.31.31,0,0,0-.32-.31H30.42a.31.31,0,0,0-.32.31v6.7a.32.32,0,0,0,.32.32h1.17a.32.32,0,0,0,.32-.32V9.31H34.8v2.58a.32.32,0,0,0,.32.32h1.15A.32.32,0,0,0,36.59,11.89Z"/><rect class="cls-2" x="37.7" y="4.88" width="1.81" height="7.33" rx="0.32" ry="0.32"/><path class="cls-2" d="M45.63,11.89V11a.32.32,0,0,0-.32-.32H42.42V5.19a.32.32,0,0,0-.32-.31H40.93a.31.31,0,0,0-.32.31v6.7a.32.32,0,0,0,.32.32h4.38A.32.32,0,0,0,45.63,11.89Z"/><path class="cls-2" d="M49.3,4.88H47.05a.31.31,0,0,0-.32.31v6.7a.32.32,0,0,0,.32.32H49.3a3.67,3.67,0,1,0,0-7.33Zm0,5.69h-.72V6.5h.72a2,2,0,0,1,2.05,2A2,2,0,0,1,49.26,10.57Z"/><path class="cls-2" d="M57.2,7.81c-.63-.18-1.3-.28-1.3-.83a.71.71,0,0,1,.77-.71.69.69,0,0,1,.73.52.32.32,0,0,0,.3.24h1.07a.33.33,0,0,0,.32-.38,2.3,2.3,0,0,0-2.47-2A2.45,2.45,0,0,0,54.11,7c0,1.26.69,1.84,1.93,2.28.61.2,1.33.36,1.33.91a.65.65,0,0,1-.74.64.76.76,0,0,1-.72-.53.32.32,0,0,0-.31-.24H54.46a.32.32,0,0,0-.32.36,2.32,2.32,0,0,0,2.49,2,2.44,2.44,0,0,0,2.5-2.37A2.25,2.25,0,0,0,57.2,7.81Z"/><path class="cls-2" d="M72.53,9.27V8.35A.32.32,0,0,0,72.21,8h-2.4V6.46h2.63a.31.31,0,0,0,.32-.31v-1a.31.31,0,0,0-.32-.31H68.32a.32.32,0,0,0-.32.31v6.7a.32.32,0,0,0,.32.32h1.17a.32.32,0,0,0,.32-.32V9.59h2.4A.32.32,0,0,0,72.53,9.27Z"/><path class="cls-2" d="M78.57,10.67H75.68V9.35H78.2A.32.32,0,0,0,78.52,9V8.1a.33.33,0,0,0-.32-.32H75.68V6.46h2.71a.35.35,0,0,0,.36-.35V5.19a.31.31,0,0,0-.32-.31H74.19a.31.31,0,0,0-.32.31v6.7a.32.32,0,0,0,.32.32h4.38a.32.32,0,0,0,.32-.32V11A.32.32,0,0,0,78.57,10.67Z"/><circle class="cls-1" cx="8.55" cy="8.55" r="3.42"/><path class="cls-1" d="M8.55,0A8.54,8.54,0,0,0,3.83,15.67a.64.64,0,0,0,.92-.22l.62-1.13a.63.63,0,0,0-.19-.83,6,6,0,1,1,6.74,0,.64.64,0,0,0-.2.83l.62,1.13a.65.65,0,0,0,.93.22A8.55,8.55,0,0,0,8.55,0Z"/><path class="cls-1" d="M9.11,14.23a.65.65,0,0,0-1.13,0L6.93,16.14a.64.64,0,0,0,.56.95H9.6a.64.64,0,0,0,.56-.95Z"/></g></g></svg>