<svg xmlns="http://www.w3.org/2000/svg" viewBox="0 0 19.29 19.29"><defs><style>.cls-1{fill:#00bc70;}</style></defs><title>childsafe-symbol-green</title><g id="Layer_2" data-name="Layer 2"><g id="Layer_1-2" data-name="Layer 1"><circle class="cls-1" cx="9.64" cy="9.64" r="3.86"/><path class="cls-1" d="M9.64,0A9.64,9.64,0,0,0,4.32,17.68a.72.72,0,0,0,1-.25l.7-1.27a.72.72,0,0,0-.22-.94,6.75,6.75,0,1,1,7.6,0,.72.72,0,0,0-.21.94l.69,1.27a.74.74,0,0,0,1.05.25A9.64,9.64,0,0,0,9.64,0Z"/><path class="cls-1" d="M10.83,19.29H8.45a.73.73,0,0,1-.63-1.08L9,16.05a.73.73,0,0,1,1.27,0l1.18,2.16A.72.72,0,0,1,10.83,19.29Z"/></g></g></svg>